<!DOCTYPE svg PUBLIC "-//W3C//DTD SVG 1.1//EN" "http://www.w3.org/Graphics/SVG/1.1/DTD/svg11.dtd">
<!-- Uploaded to: SVG Repo, www.svgrepo.com, Transformed by: SVG Repo Mixer Tools -->
<svg version="1.1" id="Layer_1" xmlns="http://www.w3.org/2000/svg" xmlns:xlink="http://www.w3.org/1999/xlink" viewBox="0 0 512 512" xml:space="preserve" width="800px" height="800px" fill="#000000">
<g id="SVGRepo_bgCarrier" stroke-width="0"/>
<g id="SVGRepo_tracerCarrier" stroke-linecap="round" stroke-linejoin="round"/>
<g id="SVGRepo_iconCarrier"> <polygon style="fill:#2D2D2D;" points="102.4,16.8 102.4,267.2 352.8,267.2 466.4,324 466.4,267.2 512,267.2 512,16.8 "/> <polygon style="fill:#ff8a3c;" points="0,210.4 0,438.4 68,438.4 68,495.2 182.4,438.4 341.6,438.4 341.6,210.4 "/> <g> <rect x="45.6" y="261.7" style="fill:#FFFFFF;" width="250.4" height="11"/> <rect x="45.6" y="296.1" style="fill:#FFFFFF;" width="250.4" height="11"/> <rect x="45.6" y="330.5" style="fill:#FFFFFF;" width="250.4" height="11"/> <rect x="45.6" y="364.1" style="fill:#FFFFFF;" width="250.4" height="11"/> </g> <g> <rect x="136.8" y="68.1" style="fill:#BCBCBC;" width="340.8" height="11"/> <rect x="136.8" y="102.5" style="fill:#BCBCBC;" width="340.8" height="11"/> <rect x="136.8" y="136.9" style="fill:#BCBCBC;" width="340.8" height="11"/> <rect x="136.8" y="170.5" style="fill:#BCBCBC;" width="340.8" height="11"/> </g> </g>
</svg>