<!DOCTYPE svg PUBLIC "-//W3C//DTD SVG 1.1//EN" "http://www.w3.org/Graphics/SVG/1.1/DTD/svg11.dtd">
<!-- Uploaded to: SVG Repo, www.svgrepo.com, Transformed by: SVG Repo Mixer Tools -->
<svg version="1.1" id="Layer_1" xmlns="http://www.w3.org/2000/svg" xmlns:xlink="http://www.w3.org/1999/xlink" viewBox="0 0 512 512" xml:space="preserve" width="800px" height="800px" fill="#000000">
<g id="SVGRepo_bgCarrier" stroke-width="0"/>
<g id="SVGRepo_tracerCarrier" stroke-linecap="round" stroke-linejoin="round"/>
<g id="SVGRepo_iconCarrier"> <rect y="62.4" style="fill:#FFFFFF;" width="512" height="387.2"/> <polygon style="fill:#D8D6D6;" points="256.7,239.3 256.7,209.6 245.7,209.6 245.7,239.3 115.3,239.3 115.3,310.4 126.3,310.4 126.3,250.3 385.7,250.3 385.7,308.8 396.7,308.8 396.7,239.3 "/> <rect x="180" y="115.2" style="fill:#ff8a3c;" width="140.8" height="97.6"/> <g> <rect x="209.6" y="148" style="fill:#FFFFFF;" width="86.4" height="11.2"/> <rect x="209.6" y="169.6" style="fill:#FFFFFF;" width="86.4" height="11.2"/> </g> <rect x="50.4" y="299.2" style="fill:#2D2D2D;" width="140.8" height="97.6"/> <g> <rect x="80" y="332" style="fill:#FFFFFF;" width="86.4" height="11.2"/> <rect x="80" y="353.6" style="fill:#FFFFFF;" width="86.4" height="11.2"/> </g> <rect x="320.8" y="299.2" style="fill:#2D2D2D;" width="140.8" height="97.6"/> <g> <rect x="350.4" y="332" style="fill:#FFFFFF;" width="86.4" height="11.2"/> <rect x="350.4" y="353.6" style="fill:#FFFFFF;" width="86.4" height="11.2"/> </g> </g>
</svg>