<!DOCTYPE svg PUBLIC "-//W3C//DTD SVG 1.1//EN" "http://www.w3.org/Graphics/SVG/1.1/DTD/svg11.dtd">
<!-- Uploaded to: SVG Repo, www.svgrepo.com, Transformed by: SVG Repo Mixer Tools -->
<svg height="800px" width="800px" version="1.1" id="Layer_1" xmlns="http://www.w3.org/2000/svg" xmlns:xlink="http://www.w3.org/1999/xlink" viewBox="0 0 511.999 511.999" xml:space="preserve" fill="#000000">
<g id="SVGRepo_bgCarrier" stroke-width="0"/>
<g id="SVGRepo_tracerCarrier" stroke-linecap="round" stroke-linejoin="round"/>
<g id="SVGRepo_iconCarrier"> <path style="fill:#ff8800;" d="M467.039,317.493c18.821,0,34.069,15.259,34.069,34.069c0,18.821-15.248,34.069-34.069,34.069 c-7.439,0-14.311-2.385-19.91-6.426v67.93h-67.93c4.041,5.598,6.437,12.471,6.437,19.91c0,18.81-15.259,34.058-34.069,34.058 c-18.821,0-34.069-15.248-34.069-34.058c0-7.439,2.385-14.311,6.426-19.91h-67.92v-67.93c5.598,4.041,12.471,6.426,19.91,6.426 c18.81,0,34.069-15.248,34.069-34.069c0-18.81-15.259-34.069-34.069-34.069c-7.439,0-14.311,2.396-19.91,6.437v-67.93h67.92 c-4.041,5.598-6.426,12.482-6.426,19.91c0,18.821,15.248,34.069,34.069,34.069c18.81,0,34.069-15.248,34.069-34.069 c0-7.428-2.396-14.311-6.437-19.91h67.93v67.93C452.727,319.889,459.6,317.493,467.039,317.493z"/> <path style="fill:#8a8a8a;" d="M447.129,187.971v68.029h-67.93c4.041,5.598,6.437,12.482,6.437,19.91 c0,18.821-15.259,34.069-34.069,34.069c-18.821,0-34.069-15.248-34.069-34.069c0-7.428,2.385-14.311,6.426-19.91h-67.92v-67.93 c5.598,4.052,12.471,6.437,19.91,6.437c18.81,0,34.069-15.259,34.069-34.069s-15.259-34.069-34.069-34.069 c-7.439,0-14.311,2.385-19.91,6.437v-67.93h73.572c-3.376-5.413-5.337-11.806-5.337-18.668c0-19.496,15.815-35.31,35.31-35.31 c19.507,0,35.321,15.815,35.321,35.31c0,6.862-1.96,13.255-5.337,18.668h57.594v71.296c-6.295-5.838-14.736-9.421-24.005-9.421 c-19.496,0-35.31,15.815-35.31,35.321s15.814,35.321,35.31,35.321C432.393,197.392,440.834,193.809,447.129,187.971z"/> <path style="fill:#ff211a;" d="M275.914,126.368c18.81,0,34.069,15.259,34.069,34.069s-15.259,34.069-34.069,34.069 c-7.439,0-14.311-2.385-19.91-6.437v67.93h-67.93c4.041,5.598,6.426,12.482,6.426,19.91c0,18.821-15.248,34.069-34.069,34.069 c-18.81,0-34.058-15.248-34.058-34.069c0-7.428,2.385-14.311,6.426-19.91H64.869v-70.065c6.35,6.077,14.943,9.824,24.43,9.824 c19.507,0,35.31-15.815,35.31-35.321s-15.804-35.321-35.31-35.321c-9.487,0-18.08,3.747-24.43,9.824V64.875h67.93 c-4.041-5.598-6.426-12.482-6.426-19.91c0-18.821,15.248-34.069,34.058-34.069c18.821,0,34.069,15.248,34.069,34.069 c0,7.428-2.385,14.311-6.426,19.91h67.93v67.93C261.603,128.754,268.475,126.368,275.914,126.368z"/> <path style="fill:#F0C419;" d="M275.914,317.493c18.81,0,34.069,15.259,34.069,34.069c0,18.821-15.259,34.069-34.069,34.069 c-7.439,0-14.311-2.385-19.91-6.426v67.93h-67.93c4.041,5.598,6.426,12.471,6.426,19.91c0,18.81-15.248,34.058-34.069,34.058 c-18.81,0-34.058-15.248-34.058-34.058c0-7.439,2.385-14.311,6.426-19.91H64.869v-67.93c-5.598,4.041-12.471,6.426-19.91,6.426 c-18.81,0-34.069-15.248-34.069-34.069c0-18.81,15.259-34.069,34.069-34.069c7.439,0,14.311,2.396,19.91,6.437v-67.93h67.93 c-4.041,5.598-6.426,12.482-6.426,19.91c0,18.821,15.248,34.069,34.058,34.069c18.821,0,34.069-15.248,34.069-34.069 c0-7.428-2.385-14.311-6.426-19.91h67.93v67.93C261.603,319.889,268.475,317.493,275.914,317.493z"/> <path d="M467.039,306.602c-3.059,0-6.075,0.305-9.017,0.905v-51.507v-68.029c0-4.33-2.565-8.249-6.535-9.982 c-3.967-1.732-8.586-0.949-11.763,1.996c-4.531,4.202-10.425,6.515-16.599,6.515c-13.464,0-24.419-10.959-24.419-24.43 s10.955-24.43,24.419-24.43c6.173,0,12.068,2.314,16.599,6.515c3.177,2.946,7.796,3.728,11.763,1.996 c3.97-1.733,6.535-5.652,6.535-9.982V64.875c0-6.015-4.877-10.892-10.892-10.892h-42.023c0.435-2.556,0.657-5.157,0.657-7.777 c0-25.476-20.731-46.202-46.213-46.202c-25.476,0-46.202,20.725-46.202,46.202c0,2.619,0.221,5.22,0.657,7.777h-58.002H204.49 c0.598-2.942,0.902-5.958,0.902-9.018c0-24.791-20.17-44.96-44.96-44.96c-24.785,0-44.949,20.169-44.949,44.96 c0,3.061,0.304,6.077,0.902,9.018H64.869c-6.014,0-10.892,4.876-10.892,10.892v70.065c0,4.362,2.603,8.304,6.613,10.016 s8.657,0.869,11.809-2.148c4.582-4.385,10.584-6.801,16.9-6.801c13.464,0,24.419,10.959,24.419,24.43 c0,13.471-10.955,24.43-24.419,24.43c-6.316,0-12.318-2.416-16.9-6.801c-3.152-3.016-7.799-3.861-11.809-2.148 c-4.011,1.713-6.613,5.654-6.613,10.016v70.065v51.507c-2.942-0.599-5.959-0.905-9.017-0.905C20.169,306.602,0,326.77,0,351.562 s20.17,44.96,44.96,44.96c3.061,0,6.076-0.304,9.017-0.902v51.515c0,6.015,4.877,10.892,10.892,10.892h51.516 c-0.598,2.941-0.902,5.958-0.902,9.018c0,24.785,20.165,44.949,44.949,44.949c24.791,0,44.96-20.165,44.96-44.949 c0-3.059-0.304-6.077-0.902-9.018h51.515h51.504c-0.598,2.941-0.902,5.959-0.902,9.018c0,24.785,20.17,44.949,44.96,44.949 c24.79,0,44.96-20.165,44.96-44.949c0-3.059-0.305-6.076-0.904-9.018h51.506c6.014,0,10.892-4.876,10.892-10.892V395.62 c2.941,0.598,5.958,0.902,9.017,0.902c24.791,0,44.96-20.169,44.96-44.96S491.829,306.602,467.039,306.602z M329.577,75.766 c3.958,0,7.603-2.147,9.524-5.607c1.92-3.46,1.812-7.691-0.282-11.048c-2.412-3.868-3.687-8.33-3.687-12.905 c0-13.464,10.955-24.419,24.419-24.419c13.471,0,24.43,10.955,24.43,24.419c0,4.576-1.274,9.038-3.687,12.905 c-2.094,3.358-2.201,7.587-0.282,11.048c1.919,3.461,5.566,5.607,9.524,5.607h46.703v41.984c-4.216-1.247-8.625-1.892-13.113-1.892 c-25.476,0-46.202,20.731-46.202,46.213s20.725,46.213,46.202,46.213c4.488,0,8.897-0.646,13.113-1.892v38.716h-57.039 c-4.09,0-7.834,2.292-9.697,5.932c-1.862,3.64-1.527,8.018,0.866,11.334c2.863,3.968,4.377,8.648,4.377,13.535 c0,12.78-10.397,23.177-23.177,23.177c-12.78,0-23.177-10.397-23.177-23.177c0-4.897,1.511-9.577,4.366-13.535 c2.393-3.315,2.728-7.693,0.866-11.334c-1.862-3.641-5.607-5.932-9.697-5.932h-57.028v-40.613c2.941,0.598,5.958,0.903,9.018,0.903 c24.791,0,44.96-20.169,44.96-44.96s-20.17-44.96-44.96-44.96c-3.062,0-6.077,0.304-9.018,0.903V75.766H329.577z M75.76,204.633 c4.339,1.329,8.894,2.017,13.539,2.017c25.476,0,46.202-20.731,46.202-46.213s-20.726-46.213-46.202-46.213 c-4.645,0-9.199,0.688-13.539,2.017V75.766h57.039c4.09,0,7.834-2.292,9.697-5.932s1.527-8.018-0.866-11.334 c-2.856-3.957-4.365-8.637-4.365-13.535c0-12.78,10.392-23.177,23.166-23.177c12.78,0,23.177,10.397,23.177,23.177 c0,4.897-1.511,9.577-4.366,13.535c-2.393,3.315-2.727,7.693-0.866,11.334c1.862,3.641,5.607,5.932,9.697,5.932h57.039v57.039 c0,4.092,2.294,7.839,5.938,9.7c3.644,1.86,8.025,1.522,11.339-0.878c3.948-2.858,8.625-4.369,13.524-4.369 c12.78,0,23.177,10.397,23.177,23.177s-10.397,23.177-23.177,23.177c-4.899,0-9.576-1.511-13.524-4.369 c-3.313-2.399-7.695-2.738-11.339-0.877c-3.644,1.86-5.938,5.607-5.938,9.7v57.039h-57.039c-4.09,0-7.834,2.292-9.697,5.932 c-1.861,3.641-1.527,8.018,0.866,11.334c2.856,3.958,4.366,8.638,4.366,13.535c0,12.78-10.397,23.177-23.177,23.177 c-12.775,0-23.166-10.397-23.166-23.177c0-4.898,1.51-9.578,4.365-13.535c2.393-3.315,2.728-7.693,0.866-11.334 c-1.862-3.641-5.607-5.932-9.697-5.932H75.76V204.633z M188.074,436.243c-4.09,0-7.834,2.292-9.697,5.932 c-1.862,3.64-1.527,8.018,0.866,11.335c2.857,3.957,4.366,8.637,4.366,13.535c0,12.775-10.397,23.166-23.177,23.166 c-12.775,0-23.166-10.393-23.166-23.166c0-4.899,1.51-9.579,4.365-13.535c2.393-3.316,2.728-7.694,0.866-11.335 c-1.862-3.641-5.607-5.932-9.697-5.932H75.76v-57.039c0-4.09-2.292-7.834-5.932-9.697c-3.643-1.864-8.019-1.528-11.334,0.865 c-3.957,2.856-8.637,4.365-13.535,4.365c-12.78,0-23.177-10.397-23.177-23.177c0-12.78,10.397-23.177,23.177-23.177 c4.887,0,9.567,1.514,13.535,4.377c3.315,2.393,7.692,2.728,11.334,0.865c3.641-1.861,5.932-5.607,5.932-9.697V266.89h40.624 c-0.598,2.941-0.902,5.958-0.902,9.018c0,24.791,20.165,44.96,44.949,44.96c24.791,0,44.96-20.169,44.96-44.96 c0-3.061-0.304-6.076-0.902-9.018h40.623v57.039c0,4.09,2.292,7.834,5.932,9.697c3.641,1.862,8.017,1.527,11.334-0.865 c3.968-2.863,8.647-4.377,13.536-4.377c12.78,0,23.177,10.397,23.177,23.177c0,12.78-10.397,23.177-23.177,23.177 c-4.898,0-9.579-1.51-13.536-4.365c-3.316-2.393-7.693-2.728-11.334-0.865c-3.641,1.861-5.932,5.607-5.932,9.697v57.039 L188.074,436.243L188.074,436.243z M467.039,374.739c-4.898,0-9.578-1.51-13.535-4.365c-3.315-2.393-7.693-2.728-11.334-0.865 c-3.641,1.861-5.932,5.607-5.932,9.697v57.039H379.2c-4.09,0-7.834,2.292-9.697,5.932c-1.862,3.64-1.527,8.018,0.866,11.335 c2.863,3.967,4.377,8.647,4.377,13.535c0,12.775-10.397,23.166-23.177,23.166c-12.78,0-23.177-10.393-23.177-23.166 c0-4.898,1.51-9.578,4.366-13.535c2.393-3.316,2.728-7.694,0.866-11.335c-1.862-3.641-5.607-5.932-9.697-5.932h-57.028v-40.623 c2.941,0.598,5.959,0.902,9.018,0.902c24.791,0,44.96-20.169,44.96-44.96s-20.17-44.96-44.96-44.96 c-3.059,0-6.076,0.305-9.018,0.905v-40.616h40.612c-0.598,2.942-0.902,5.958-0.902,9.018c0,24.791,20.17,44.96,44.96,44.96 c24.79,0,44.96-20.169,44.96-44.96c0-3.059-0.305-6.076-0.904-9.018h40.615v57.039c0,4.09,2.292,7.834,5.932,9.697 c3.642,1.862,8.018,1.529,11.334-0.865c3.968-2.863,8.647-4.377,13.535-4.377c12.78,0,23.177,10.397,23.177,23.177 S479.819,374.739,467.039,374.739z"/> <path d="M412.853,365.895c-6.014,0-10.892,4.876-10.892,10.892v32.315c0,6.015,4.877,10.892,10.892,10.892 s10.892-4.876,10.892-10.892v-32.315C423.745,370.771,418.868,365.895,412.853,365.895z"/> <path d="M412.853,320.151c-6.014,0-10.892,4.876-10.892,10.892v4.629c0,6.015,4.877,10.892,10.892,10.892 s10.892-4.876,10.892-10.892v-4.629C423.745,325.027,418.868,320.151,412.853,320.151z"/> </g>
</svg>