<?xml version="1.0" encoding="iso-8859-1"?>
<!-- Uploaded to: SVG Repo, www.svgrepo.com, Generator: SVG Repo Mixer Tools -->
<svg height="800px" width="800px" version="1.1" id="Layer_1" xmlns="http://www.w3.org/2000/svg" xmlns:xlink="http://www.w3.org/1999/xlink" 
	 viewBox="0 0 490 490" xml:space="preserve">
<g>
	<g>
		<path style="fill:#787E82;" d="M480,210v70c0,5.5-4.5,10-10,10h-35.4c-4.9,20.5-13,39.8-23.8,57.2l25.1,25.1
			c3.9,3.9,3.9,10.2,0,14.1l-49.5,49.5c-3.9,3.9-10.2,3.9-14.1,0l-25.1-25.1c-17.4,10.8-36.7,18.9-57.2,23.8V470c0,5.5-4.5,10-10,10
			h-70c-5.5,0-10-4.5-10-10v-35.4c-20.5-4.9-39.8-13-57.2-23.8l-25.1,25.1c-3.9,3.9-10.2,3.9-14.1,0l-49.5-49.5
			c-3.9-3.9-3.9-10.2,0-14.1l25.1-25.1c-10.8-17.4-18.9-36.7-23.8-57.2H20c-5.5,0-10-4.5-10-10v-70c0-5.5,4.5-10,10-10h35.4
			c4.9-20.5,13-39.8,23.8-57.2l-25.1-25.1c-3.9-3.9-3.9-10.2,0-14.1l49.5-49.5c3.9-3.9,10.2-3.9,14.1,0l25.1,25.1
			c17.4-10.8,36.7-18.9,57.2-23.8V20c0-5.5,4.5-10,10-10h70c5.5,0,10,4.5,10,10v35.4c20.5,4.9,39.8,13,57.2,23.8l25.1-25.1
			c3.9-3.9,10.2-3.9,14.1,0l49.5,49.5c3.9,3.9,3.9,10.2,0,14.1l-25.1,25.1c10.8,17.4,18.9,36.7,23.8,57.2H470
			C475.5,200,480,204.5,480,210z"/>
	</g>
	<g>
		<path style="fill:#E7ECED;" d="M245,120c69.1,0,125,55.9,125,125s-55.9,125-125,125s-125-55.9-125-125S175.9,120,245,120z"/>
	</g>
	<path style="fill:#546A79;" d="M260,260c22.1,0,40,17.9,40,40v57.1c-16.6,8.2-35.2,12.9-55,12.9s-38.4-4.7-55-12.9V300
		c0-22.1,17.9-40,40-40h15H260z"/>
	<g>
		<path style="fill:#AFB6BB;" d="M280,200v25c0,19.3-15.7,35-35,35s-35-15.7-35-35v-25c0-19.3,15.7-35,35-35S280,180.7,280,200z"/>
	</g>
	<g>
		<path style="fill:#231F20;" d="M470,190h-27.664c-4.475-15.989-10.833-31.279-18.972-45.622l19.608-19.607
			c7.784-7.787,7.784-20.456-0.001-28.242l-49.501-49.5c-7.785-7.787-20.455-7.785-28.242,0l-19.606,19.606
			C331.279,58.497,315.99,52.139,300,47.664V20c0-11.028-8.972-20-20-20h-70c-11.028,0-20,8.972-20,20v27.664
			c-15.99,4.475-31.279,10.833-45.622,18.972l-19.607-19.607c-7.786-7.787-20.456-7.785-28.242,0l-49.5,49.5
			c-7.785,7.786-7.785,20.455,0,28.242l19.607,19.606C58.497,158.721,52.139,174.011,47.664,190H20c-11.028,0-20,8.972-20,20v70
			c0,11.028,8.972,20,20,20h27.664c4.475,15.989,10.833,31.279,18.972,45.622l-19.608,19.607
			c-7.784,7.787-7.784,20.456,0.001,28.242l49.501,49.5c7.786,7.787,20.456,7.785,28.242,0l19.606-19.606
			c14.343,8.139,29.632,14.497,45.622,18.972V470c0,11.028,8.972,20,20,20h70c11.028,0,20-8.972,20-20v-27.664
			c15.99-4.475,31.279-10.833,45.622-18.972l19.607,19.607c7.785,7.787,20.455,7.785,28.242,0l49.5-49.5
			c7.785-7.786,7.785-20.455,0-28.242l-19.607-19.606c8.139-14.343,14.497-29.633,18.972-45.622H470c11.028,0,20-8.972,20-20v-70
			C490,198.972,481.028,190,470,190z M470,280h-35.4c-4.628,0-8.65,3.175-9.727,7.675c-4.612,19.301-12.206,37.554-22.569,54.251
			c-2.45,3.947-1.859,9.06,1.425,12.345l25.101,25.057l-49.458,49.5l-25.1-25.1c-3.286-3.286-8.399-3.874-12.345-1.426
			c-16.696,10.363-34.949,17.957-54.252,22.571c-4.5,1.076-7.675,5.099-7.675,9.726V470h-70v-35.4c0-4.627-3.175-8.65-7.675-9.726
			c-19.303-4.614-37.556-12.208-54.252-22.571c-1.628-1.011-3.455-1.503-5.271-1.503c-2.584,0-5.145,1-7.074,2.929l-25.058,25.1
			l-49.5-49.458l25.101-25.1c3.284-3.285,3.875-8.398,1.425-12.345c-10.363-16.698-17.957-34.951-22.569-54.251
			c-1.076-4.5-5.099-7.675-9.727-7.675H20v-70h35.4c4.628,0,8.65-3.175,9.727-7.675c4.612-19.301,12.206-37.554,22.569-54.251
			c2.45-3.947,1.859-9.06-1.425-12.345L61.17,110.672l49.458-49.5l25.1,25.1c3.285,3.286,8.4,3.874,12.345,1.426
			c16.696-10.363,34.949-17.957,54.252-22.571c4.5-1.076,7.675-5.099,7.675-9.726V20h70v35.4c0,4.627,3.175,8.65,7.675,9.726
			c19.303,4.614,37.556,12.208,54.252,22.571c3.945,2.449,9.059,1.86,12.345-1.426l25.058-25.1l49.5,49.458l-25.101,25.1
			c-3.284,3.285-3.875,8.398-1.425,12.345c10.363,16.698,17.957,34.951,22.569,54.251c1.076,4.5,5.099,7.675,9.727,7.675H470V280z"
			/>
		<path style="fill:#231F20;" d="M245,110c-74.439,0-135,60.561-135,135s60.561,135,135,135s135-60.561,135-135S319.439,110,245,110
			z M200,350.826V300c0-16.542,13.458-30,30-30h30c16.542,0,30,13.458,30,30v50.826c-13.829,5.903-29.039,9.174-45,9.174
			S213.829,356.729,200,350.826z M270,225c0,13.785-11.215,25-25,25s-25-11.215-25-25v-25c0-13.785,11.215-25,25-25s25,11.215,25,25
			V225z M310,339.815V300c0-20.682-12.622-38.471-30.568-46.069C286.02,246.102,290,236.009,290,225v-25c0-24.813-20.187-45-45-45
			s-45,20.187-45,45v25c0,11.009,3.98,21.102,10.568,28.931C192.622,261.529,180,279.318,180,300v39.815
			c-30.173-20.75-50-55.508-50-94.815c0-63.411,51.589-115,115-115s115,51.589,115,115C360,284.307,340.173,319.065,310,339.815z"/>
	</g>
</g>
</svg>