<svg viewBox="0 0 128 128" xmlns="http://www.w3.org/2000/svg">
<rect width="128" height="128" rx="8" fill="#3178c6"/>
<path d="M82.32 88.68v12.96c2.1 1.08 4.59 1.89 7.47 2.43s5.91.81 9.09.81c3.09 0 5.97-.3 8.64-.9 2.67-.6 4.98-1.56 6.93-2.88a14.07 14.07 0 0 0 4.65-5.04c1.11-2.07 1.67-4.59 1.67-7.56 0-2.16-.3-4.05-.9-5.67-.6-1.62-1.47-3.06-2.61-4.32a19.2 19.2 0 0 0-4.14-3.42c-1.62-1.02-3.45-2.01-5.49-2.97-1.47-.69-2.76-1.35-3.87-1.98a14.74 14.74 0 0 1-2.79-1.89 7.33 7.33 0 0 1-1.71-2.07c-.39-.78-.585-1.65-.585-2.61 0-.87.18-1.65.54-2.34a4.95 4.95 0 0 1 1.53-1.8c.66-.48 1.47-.87 2.43-1.17.96-.3 2.04-.45 3.24-.45 1.2 0 2.22.09 3.06.27.84.18 1.62.45 2.34.81.72.36 1.41.78 2.07 1.26.66.48 1.29 1.02 1.89 1.62V48.12a24.33 24.33 0 0 0-6.12-1.62c-2.22-.36-4.68-.54-7.38-.54-3.06 0-5.88.33-8.46.99-2.58.66-4.83 1.68-6.75 3.06a15.09 15.09 0 0 0-4.53 5.13c-1.11 2.07-1.665 4.53-1.665 7.38 0 3.54.99 6.54 2.97 9 1.98 2.46 4.95 4.56 8.91 6.3 1.53.66 2.94 1.32 4.23 1.98a17.04 17.04 0 0 1 3.24 2.1c.9.75 1.59 1.56 2.07 2.43.48.87.72 1.83.72 2.88 0 .84-.15 1.62-.45 2.34-.3.72-.78 1.35-1.44 1.89-.66.54-1.5.96-2.52 1.26-1.02.3-2.25.45-3.69.45-2.01 0-3.96-.36-5.85-1.08-1.89-.72-3.66-1.8-5.31-3.24zM64.54 52.92H52.7v48.36H41.5V52.92H29.66V43.2h34.88v9.72z" fill="#fff"/>
</svg>